 http://img856.imageshack.us/img856/4076/cidade.jpg

Country.......: Brazil
Genre.........: Crime, Drama
Date release..: 31.08.2007 [World]
Director......: Paulo Morelli
Writers.......: Elena Soarez, Paulo Morelli
Duration......: 102 min.
More..........: http://www.imdb.com/title/tt0870090
Trailer.......: http://www.imdb.com/video/imdb/vi179437849
Trailer.......:

Pilot :
Best buddies Acerola and Laranjinha, about to turn 18, discover things about their missing fathers' pasts which will shatter their solid friendship, in the middle of a war between rival drug gangs from Rio's favelas. 

Cats :
Douglas Silva   	 ...  	Acerola
Darlan Cunha 	... 	Laranjinha
Jonathan Haagensen 	... 	Madrugadao
Rodrigo dos Santos 	... 	Heraldo
Camila Monteiro 	... 	Cris
Naima Silva 	... 	Camila
Eduardo BR Piranha 	... 	Nefasto (as Eduardo BR)
Luciano Vidigal 	... 	Fiel
Pedro Henrique 	... 	Caju
Aldene Abreu 	... 	Soldado 1 Bete
Gabriel Aguila 	... 	Soldado do Madrugadao 2
Edy Argolo 	... 	Soldado do Madrugadao 7
Jonathan Azevedo 	... 	Soldado de Madrugadao 1
Andrea Bacellar 	... 	Patroa Cris
Marcello Barcellos 	... 	Policial 2 

Data Technical :
!!! SAMPLE !!!
Audio.....: Lector Polish
Subtitles.: None
Format                           : AVI
Format/Info                      : Audio Video Interleave
File size                        : 700 MiB
Duration                         : 1h 42mn
Overall bit rate                 : 958 Kbps
Writing application              : VirtualDubMod 1.5.10.2 (build 2540/release)
Writing library                  : VirtualDubMod build 2540/release
Video
ID                               : 0
Format                           : MPEG-4 Visual
Format profile                   : Advanced Simple@L5
Format settings, BVOP            : Yes
Format settings, QPel            : No
Format settings, GMC             : No warppoints
Format settings, Matrix          : Default (MPEG)
Codec ID                         : XVID
Codec ID/Hint                    : XviD
Duration                         : 1h 42mn
Bit rate                         : 814 Kbps
Width                            : 640 pixels
Height                           : 352 pixels
Display aspect ratio             : 16:9
Frame rate                       : 25.000 fps
Color space                      : YUV
Chroma subsampling               : 4:2:0
Bit depth                        : 8 bits
Scan type                        : Progressive
Bits/(Pixel*Frame)               : 0.145
Stream size                      : 595 MiB (85%)
Writing library                  : XviD 1.2.1 (UTC 2008-12-04)
Audio
ID                               : 1
Format                           : MPEG Audio
Format version                   : Version 1
Format profile                   : Layer 3
Mode                             : Joint stereo
Codec ID                         : 55
Codec ID/Hint                    : MP3
Duration                         : 1h 42mn
Bit rate mode                    : Variable
Bit rate                         : 128 Kbps
Channel(s)                       : 2 channels
Sampling rate                    : 48.0 KHz
Stream size                      : 95.5 MiB (14%)
Alignment                        : Aligned on interleaves
Interleave, duration             : 24 ms (0.60 video frame)
Interleave, preload duration     : 140 ms
Writing library                  : LAME3.90.
Encoding settings                : -m j -V 4 -q 2 -lowpass 17.6 --abr 128

Screen : 
http://img685.imageshack.us/img685/2642/cidadedoshomens2007s1.jpg 
http://img594.imageshack.us/img594/7008/cidadedoshomens2007s2.jpg 
http://img714.imageshack.us/img714/6456/cidadedoshomens2007s3.jpg 
http://img842.imageshack.us/img842/417/cidadedoshomens2007s4.jpg 
http://img801.imageshack.us/img801/3194/cidadedoshomens2007s5.jpg